<svg xmlns="http://www.w3.org/2000/svg" version="1.1" xmlns:xlink="http://www.w3.org/1999/xlink" xmlns:svgjs="http://svgjs.dev/svgjs" width="1000" height="1000" viewBox="0 0 1000 1000"><rect width="1000" height="1000" fill="#000000"></rect><g transform="matrix(0.7,0,0,0.7,150.6187556391534,146.08680161943317)"><svg viewBox="0 0 244 247" data-background-color="#ffffff" preserveAspectRatio="xMidYMid meet" height="1012" width="1000" xmlns="http://www.w3.org/2000/svg" xmlns:xlink="http://www.w3.org/1999/xlink"><g id="tight-bounds" transform="matrix(1,0,0,1,-0.21568020140361455,-0.09999999999999432)"><svg viewBox="0 0 244.43135999999998 247.2" height="247.2" width="244.43135999999998"><g><svg></svg></g><g><svg viewBox="0 0 244.43135999999998 247.2" height="247.2" width="244.43135999999998"><g transform="matrix(1,0,0,1,0,83.74132250539958)"><svg viewBox="0 0 244.43135999999998 79.71735498920084" height="79.71735498920084" width="244.43135999999998"><g><svg viewBox="0 0 244.43135999999998 79.71735498920084" height="79.71735498920084" width="244.43135999999998"><g><svg viewBox="0 0 244.43135999999998 79.71735498920084" height="79.71735498920084" width="244.43135999999998"><g><svg viewBox="0 0 244.43135999999998 79.71735498920084" height="79.71735498920084" width="244.43135999999998"><g id="textblocktransform"><svg viewBox="0 0 244.43135999999998 79.71735498920084" height="79.71735498920084" width="244.43135999999998" id="textblock"><g><svg viewBox="0 0 244.43135999999998 79.71735498920084" height="79.71735498920084" width="244.43135999999998"><g transform="matrix(1,0,0,1,0,0)"><svg width="244.43135999999998" viewBox="7.800000190734863 -41.5 138.88999938964844 45.29999923706055" height="79.71735498920084" data-palette-color="#4d7e3e"><path d="M8.4-2.6L8.4-2.6Q9.15-4.25 10.2-6.85 11.25-9.45 12.4-12.48 13.55-15.5 14.75-18.68 15.95-21.85 17-24.7 18.05-27.55 18.82-29.8 19.6-32.05 19.95-33.25L19.95-33.25Q16.8-31.95 14.55-29.3 12.3-26.65 11.15-22.65L11.15-22.65Q10-23.05 9.05-24.08 8.1-25.1 7.8-26.65L7.8-26.65Q8.3-28.95 9.68-30.85 11.05-32.75 13.15-34.1 15.25-35.45 18-36.18 20.75-36.9 23.9-36.9L23.9-36.9Q27.9-36.9 31.25-35.73 34.6-34.55 37-32.45 39.4-30.35 40.75-27.4 42.1-24.45 42.1-20.85L42.1-20.85Q42.1-15.95 40.3-11.5 38.5-7.05 35.43-3.65 32.35-0.25 28.3 1.78 24.25 3.8 19.8 3.8L19.8 3.8Q15.7 3.8 12.78 2.18 9.85 0.55 8.4-2.6ZM26.05-34.4L26.05-34.4Q23.55-34.4 21.3-33.7L21.3-33.7Q23.5-32.9 24.95-32.02 26.4-31.15 26.95-30.65L26.95-30.65Q26.55-30.1 25.78-28.7 25-27.3 23.98-25.3 22.95-23.3 21.8-20.93 20.65-18.55 19.55-16.05L19.55-16.05Q16.7-9.7 15.43-6.05 14.15-2.4 14.15-1L14.15-1Q14.85-0.75 15.85-0.65 16.85-0.55 18-0.55L18-0.55Q22.05-0.55 25.68-2.43 29.3-4.3 32.02-7.45 34.75-10.6 36.33-14.78 37.9-18.95 37.9-23.55L37.9-23.55Q37.9-28.7 34.7-31.55 31.5-34.4 26.05-34.4ZM60.75-20.2L60.75-20.2Q61.25-20.2 61.92-20.03 62.6-19.85 63.15-19.58 63.7-19.3 64.07-19 64.45-18.7 64.45-18.45L64.45-18.45Q63.45-16.35 62.6-14.23 61.75-12.1 61.15-10.15 60.55-8.2 60.22-6.5 59.9-4.8 59.9-3.55L59.9-3.55Q59.9-2.15 60.2-1.23 60.5-0.3 61.2 0.1L61.2 0.1Q60.6 0.5 59.65 0.75 58.7 1 57.95 1L57.95 1Q55.25 1 55.25-2.7L55.25-2.7Q55.25-5.55 57.15-10.5L57.15-10.5Q56.15-8.2 54.85-6.18 53.55-4.15 52.2-2.6 50.85-1.05 49.47-0.08 48.1 0.9 46.95 1.1L46.95 1.1Q45.1 1 43.95-0.68 42.8-2.35 42.8-4.95L42.8-4.95Q42.8-7.75 44-10.85 45.2-13.95 47.07-16.6 48.95-19.25 51.15-21.03 53.35-22.8 55.4-22.9L55.4-22.9Q55.9-22.75 56.52-22.3 57.15-21.85 57.72-21.25 58.3-20.65 58.7-20.03 59.1-19.4 59.15-18.95L59.15-18.95Q57.15-18.65 55.02-17 52.9-15.35 51.17-13.03 49.45-10.7 48.35-8.05 47.25-5.4 47.25-3.1L47.25-3.1Q47.25-2.15 47.95-1.9L47.95-1.9Q49.4-2.2 51.3-4.38 53.2-6.55 55.9-11.1L55.9-11.1Q56.4-12 57.02-13.1 57.65-14.2 58.3-15.4 58.95-16.6 59.57-17.82 60.2-19.05 60.75-20.2ZM75.1-24.25L75.1-24.25Q76.4-23.85 77.55-22.48 78.7-21.1 79.25-19.45L79.25-19.45Q78.7-18.1 77.55-16.2 76.4-14.3 75.25-12.33 74.1-10.35 73.17-8.58 72.25-6.8 72.1-5.65L72.1-5.65Q72.9-6.5 73.87-7.63 74.85-8.75 75.77-9.88 76.7-11 77.5-11.93 78.3-12.85 78.75-13.3L78.75-13.3Q79.7-14.3 81-15.63 82.3-16.95 83.72-18.13 85.15-19.3 86.6-20.13 88.05-20.95 89.25-20.95L89.25-20.95Q90.55-20.95 91.42-20.08 92.3-19.2 92.8-18.25L92.8-18.25Q92.8-18.15 92.42-17.98 92.05-17.8 91.35-17L91.35-17Q90.65-16.1 89.77-14.53 88.9-12.95 88.07-11.13 87.25-9.3 86.7-7.4 86.15-5.5 86.15-3.95L86.15-3.95Q86.15-2.7 86.47-2.35 86.8-2 87.4-2L87.4-2Q87.95-2 88.55-2.25 89.15-2.5 89.5-2.5L89.5-2.5Q89.7-2.4 89.82-2.08 89.95-1.75 89.95-1.5L89.95-1.5Q89.55-1.15 89-0.8 88.45-0.45 87.85-0.15 87.25 0.15 86.67 0.35 86.1 0.55 85.65 0.55L85.65 0.55Q84.2 0.55 83.27 0.13 82.35-0.3 81.82-1 81.3-1.7 81.1-2.68 80.9-3.65 80.9-4.75L80.9-4.75Q80.9-5.35 81-6.1 81.1-6.85 81.4-7.88 81.7-8.9 82.25-10.33 82.8-11.75 83.65-13.75L83.65-13.75Q83.55-13.75 82.3-13.05 81.05-12.35 79.6-10.9L79.6-10.9Q77.25-8.65 75.37-6.45 73.5-4.25 71.55-1.55L71.55-1.55Q70.45 0 69.62 1.07 68.8 2.15 68.2 2.5L68.2 2.5Q67.15 1.9 66.65 0.83 66.15-0.25 65.9-1.4L65.9-1.4Q65.9-2.35 66.17-3.8 66.45-5.25 66.92-7.03 67.4-8.8 68.1-10.75 68.8-12.7 69.65-14.65L69.65-14.65Q71.55-19.05 73.12-21.55 74.7-24.05 75.1-24.25ZM94.04-3.35L94.04-3.35Q94.04-3.8 94.12-4.48 94.19-5.15 94.39-6.28 94.59-7.4 94.92-9 95.24-10.6 95.74-12.85L95.74-12.85Q95.84-13.35 96.19-14.45 96.54-15.55 97.12-16.78 97.69-18 98.52-19.15 99.34-20.3 100.49-20.85L100.49-20.85Q101.34-20.65 102.74-19.83 104.14-19 105.14-17.55L105.14-17.55Q103.99-16.25 103.22-14.95 102.44-13.65 101.82-12.25 101.19-10.85 100.67-9.35 100.14-7.85 99.49-6.2L99.49-6.2Q98.94-4.8 98.49-3.33 98.04-1.85 97.99-0.75L97.99-0.75Q97.99 0.15 97.97 0.53 97.94 0.9 97.69 0.9L97.69 0.9Q97.49 0.9 96.89 0.65 96.29 0.4 95.67-0.13 95.04-0.65 94.54-1.45 94.04-2.25 94.04-3.35ZM103.59-25.05L103.59-25.05Q103.59-25.35 103.74-25.95L103.74-25.95Q103.49-26.2 103.32-26.7 103.14-27.2 103.14-27.6L103.14-27.6Q103.14-28.05 103.27-28.83 103.39-29.6 103.59-30.5 103.79-31.4 104.09-32.38 104.39-33.35 104.69-34.15L104.69-34.15Q105.29-34.15 106.17-33.83 107.04-33.5 107.94-32.98 108.84-32.45 109.59-31.83 110.34-31.2 110.74-30.65L110.74-30.65Q110.19-30.1 109.29-29.13 108.39-28.15 107.54-27.08 106.69-26 105.99-25.05 105.29-24.1 105.09-23.7L105.09-23.7Q104.49-23.8 104.04-24.23 103.59-24.65 103.59-25.05ZM123.69-20.7L123.69-20.7Q123.49-17.6 122.59-15.38 121.69-13.15 120.02-11.48 118.34-9.8 115.94-8.45 113.54-7.1 110.34-5.85L110.34-5.85Q110.34-5.55 110.32-5.23 110.29-4.9 110.29-4.55L110.29-4.55Q110.29-3.9 110.39-3.2 110.49-2.5 110.74-1.9 110.99-1.3 111.44-0.93 111.89-0.55 112.59-0.55L112.59-0.55Q113.94-0.55 115.24-1.15 116.54-1.75 117.72-2.63 118.89-3.5 119.92-4.53 120.94-5.55 121.74-6.4L121.74-6.4Q122.24-5.95 122.59-5.55L122.59-5.55Q120.34-2.55 117.67-0.58 114.99 1.4 112.59 1.95L112.59 1.95Q109.14 1.55 107.22-0.58 105.29-2.7 105.29-5.7L105.29-5.7Q105.29-7.75 105.87-9.88 106.44-12 107.47-13.98 108.49-15.95 109.87-17.7 111.24-19.45 112.82-20.75 114.39-22.05 116.07-22.8 117.74-23.55 119.39-23.55L119.39-23.55Q121.69-23.25 123.69-20.7ZM120.24-19.05L120.24-19.05Q118.89-18.85 117.44-17.95 115.99-17.05 114.72-15.55 113.44-14.05 112.39-12.05 111.34-10.05 110.74-7.75L110.74-7.75Q114.74-9.75 117.39-12.68 120.04-15.6 120.24-19.05ZM125.94-3.2L125.94-3.2Q125.94-5.4 126.99-9.38 128.04-13.35 129.94-18.65L129.94-18.65Q133.04-27.1 135.76-32.73 138.49-38.35 141.09-41.5L141.09-41.5Q141.69-41.4 142.56-41 143.44-40.6 144.29-40.13 145.14-39.65 145.81-39.15 146.49-38.65 146.69-38.35L146.69-38.35Q142.79-33.75 139.84-28.45 136.89-23.15 134.44-16.3L134.44-16.3Q132.34-10.4 131.24-5.68 130.14-0.95 130.14 2.2L130.14 2.2Q130.14 3.05 130.14 3.25 130.14 3.45 130.19 3.65L130.19 3.65Q129.49 3.55 128.99 3.3 128.49 3.05 128.34 2.7L128.34 2.7Q128.24 2.45 127.79 1.98 127.34 1.5 126.99 1.25L126.99 1.25Q126.54 0.95 126.24-0.33 125.94-1.6 125.94-3.2Z" opacity="1" transform="matrix(1,0,0,1,0,0)" fill="#ffffff" class="undefined-text-0" data-fill-palette-color="primary" id="text-0"></path></svg></g></svg></g></svg></g></svg></g><g></g></svg></g></svg></g></svg></g><path d="M0 77.741L0 1 244.431 1 244.431 77.741 237.242 77.741 237.242 8.189 7.189 8.189 7.189 77.741 0 77.741M0 169.459L0 246.2 244.431 246.2 244.431 169.459 237.242 169.459 237.242 239.011 7.189 239.011 7.189 169.459 0 169.459" fill="#ffffff" stroke="transparent" data-fill-palette-color="primary"></path></svg></g><defs></defs></svg><rect width="244.43135999999998" height="247.2" fill="none" stroke="none" visibility="hidden"></rect></g></svg></g></svg>